# xmcd
#
# Track frame offsets:
#	150
#	15068
#	43018
#	57993
#	85762
#	109599
#	126796
#	148655
#	171371
#	202473
#	229357
#	232265
#	255574
#	277247
#	301216
#	317955
#	332449
#
# Disc length: 4776 seconds
#
# Revision: 1
# Processed by: cddbd v1.5.2PL0 Copyright (c) Steve Scherf et al.
# Submitted via: audiograbber 1.83.01
#
DISCID=f912a611
DTITLE=Alex Harvey - The LAst of the Teenage Idols The Highlights
DYEAR=1900
DGENRE=Rock
TTITLE0=$ 25 4 a Massage
TTITLE1=Dogs of War
TTITLE2=Satchel and the Scalp Hunter
TTITLE3=The Dolphins
TTITLE4=Who Murdered Sex?
TTITLE5=Nightmare City
TTITLE6=Water Beastie
TTITLE7=No Complains Departement
TTITLE8=Engine Room Boogie
TTITLE9=Rock N Rool
TTITLE10=I Love Monsters Too
TTITLE11=The Mafia Stole My Guitar
TTITLE12=Shakin' all Over
TTITLE13=Just a Gigolo - I Ain't Got Nobody
TTITLE14=Big Tree
TTITLE15=Snowshoes Thomson
TTITLE16=Billy Bolero
EXTD=
EXTT0=
EXTT1=
EXTT2=
EXTT3=
EXTT4=
EXTT5=
EXTT6=
EXTT7=
EXTT8=
EXTT9=
EXTT10=
EXTT11=
EXTT12=
EXTT13=
EXTT14=
EXTT15=
EXTT16=
PLAYORDER=
